<?xml version="1.0" encoding="UTF-8" standalone="no"?>
<!DOCTYPE svg PUBLIC "-//W3C//DTD SVG 1.1//EN"
 "http://www.w3.org/Graphics/SVG/1.1/DTD/svg11.dtd">
<!-- Generated by graphviz version 2.47.0 (20210316.0004)
 -->
<!-- Title: dependencies Pages: 1 -->
<svg width="725pt" height="360pt"
 viewBox="0.00 0.00 725.00 360.00" xmlns="http://www.w3.org/2000/svg" xmlns:xlink="http://www.w3.org/1999/xlink">
<g id="graph0" class="graph" transform="scale(1 1) rotate(0) translate(4 356)">
<title>dependencies</title>
<polygon fill="white" stroke="transparent" points="-4,4 -4,-356 721,-356 721,4 -4,4"/>
<text text-anchor="start" x="337.51" y="-42.4" font-family="Times-12" font-weight="bold" font-size="14.00">Legend</text>
<polygon fill="#ffffb3" stroke="transparent" points="124.5,-10 124.5,-30 144.5,-30 144.5,-10 124.5,-10"/>
<text text-anchor="start" x="148.13" y="-15.4" font-family="Times-12" font-size="14.00"> &#160;Declarations</text>
<polygon fill="#8dd3c7" stroke="transparent" points="237.5,-10 237.5,-30 257.5,-30 257.5,-10 237.5,-10"/>
<text text-anchor="start" x="261.23" y="-15.4" font-family="Times-12" font-size="14.00"> &#160;Module</text>
<polygon fill="#80b1d3" stroke="transparent" points="323.5,-10 323.5,-30 343.5,-30 343.5,-10 323.5,-10"/>
<text text-anchor="start" x="347.28" y="-15.4" font-family="Times-12" font-size="14.00"> &#160;Bootstrap</text>
<polygon fill="#fdb462" stroke="transparent" points="420.5,-10 420.5,-30 440.5,-30 440.5,-10 420.5,-10"/>
<text text-anchor="start" x="444.17" y="-15.4" font-family="Times-12" font-size="14.00"> &#160;Providers</text>
<polygon fill="#fb8072" stroke="transparent" points="516.5,-10 516.5,-30 536.5,-30 536.5,-10 516.5,-10"/>
<text text-anchor="start" x="540.23" y="-15.4" font-family="Times-12" font-size="14.00"> &#160;Exports</text>
<g id="clust1" class="cluster">
<title>cluster_AppModule</title>
<polygon fill="none" stroke="black" stroke-dasharray="1,5" points="8,-70 8,-336 455,-336 455,-70 8,-70"/>
</g>
<g id="clust3" class="cluster">
<title>cluster_AppModule_imports</title>
<polygon fill="none" stroke="black" points="315,-143 315,-260 419,-260 419,-143 315,-143"/>
</g>
<g id="clust6" class="cluster">
<title>cluster_AppModule_providers</title>
<polygon fill="none" stroke="black" points="16,-78 16,-130 447,-130 447,-78 16,-78"/>
</g>
<g id="clust7" class="cluster">
<title>cluster_AuthModule</title>
<polygon fill="none" stroke="black" stroke-dasharray="1,5" points="463,-276 463,-344 585,-344 585,-276 463,-276"/>
</g>
<g id="clust10" class="cluster">
<title>cluster_AuthModule_exports</title>
<polygon fill="none" stroke="black" points="471,-284 471,-336 577,-336 577,-284 471,-284"/>
</g>
<g id="clust13" class="cluster">
<title>cluster_UserModule</title>
<polygon fill="none" stroke="black" stroke-dasharray="1,5" points="463,-200 463,-268 709,-268 709,-200 463,-200"/>
</g>
<g id="clust16" class="cluster">
<title>cluster_UserModule_exports</title>
<polygon fill="none" stroke="black" points="471,-208 471,-260 701,-260 701,-208 471,-208"/>
</g>
<!-- AuthModule -->
<g id="node1" class="node">
<title>AuthModule</title>
<polygon fill="#8dd3c7" stroke="black" points="410.55,-252 407.55,-256 386.55,-256 383.55,-252 323.45,-252 323.45,-216 410.55,-216 410.55,-252"/>
<text text-anchor="middle" x="367" y="-229.8" font-family="Times,serif" font-size="14.00">AuthModule</text>
</g>
<!-- AppModule -->
<g id="node3" class="node">
<title>AppModule</title>
<polygon fill="#8dd3c7" stroke="black" points="325.66,-328 322.66,-332 301.66,-332 298.66,-328 242.34,-328 242.34,-292 325.66,-292 325.66,-328"/>
<text text-anchor="middle" x="284" y="-305.8" font-family="Times,serif" font-size="14.00">AppModule</text>
</g>
<!-- AuthModule&#45;&gt;AppModule -->
<g id="edge1" class="edge">
<title>AuthModule&#45;&gt;AppModule</title>
<path fill="none" stroke="black" d="M323.31,-240C319.05,-240 316.26,-240 316.26,-240 316.26,-240 316.26,-281.97 316.26,-281.97"/>
<polygon fill="black" stroke="black" points="312.76,-281.97 316.26,-291.97 319.76,-281.97 312.76,-281.97"/>
</g>
<!-- AuthService  -->
<g id="node7" class="node">
<title>AuthService </title>
<polygon fill="#fb8072" stroke="black" points="568.98,-328 479.02,-328 479.02,-292 568.98,-292 568.98,-328"/>
<text text-anchor="middle" x="524" y="-305.8" font-family="Times,serif" font-size="14.00">AuthService </text>
</g>
<!-- AuthModule&#45;&gt;AuthService  -->
<g id="edge7" class="edge">
<title>AuthModule&#45;&gt;AuthService </title>
<path fill="none" stroke="black" stroke-dasharray="5,2" d="M368.3,-252.01C368.3,-274.49 368.3,-310 368.3,-310 368.3,-310 468.97,-310 468.97,-310"/>
<polygon fill="black" stroke="black" points="468.97,-313.5 478.97,-310 468.97,-306.5 468.97,-313.5"/>
</g>
<!-- UserModule -->
<g id="node2" class="node">
<title>UserModule</title>
<polygon fill="#8dd3c7" stroke="black" points="409.98,-187 406.98,-191 385.98,-191 382.98,-187 324.02,-187 324.02,-151 409.98,-151 409.98,-187"/>
<text text-anchor="middle" x="367" y="-164.8" font-family="Times,serif" font-size="14.00">UserModule</text>
</g>
<!-- UserModule&#45;&gt;AuthModule -->
<g id="edge6" class="edge">
<title>UserModule&#45;&gt;AuthModule</title>
<path fill="none" stroke="black" d="M367,-187.11C367,-187.11 367,-205.99 367,-205.99"/>
<polygon fill="black" stroke="black" points="363.5,-205.99 367,-215.99 370.5,-205.99 363.5,-205.99"/>
</g>
<!-- UserModule&#45;&gt;AppModule -->
<g id="edge2" class="edge">
<title>UserModule&#45;&gt;AppModule</title>
<path fill="none" stroke="black" d="M323.85,-175C315.5,-175 309.29,-175 309.29,-175 309.29,-175 309.29,-281.79 309.29,-281.79"/>
<polygon fill="black" stroke="black" points="305.79,-281.79 309.29,-291.79 312.79,-281.79 305.79,-281.79"/>
</g>
<!-- UserRepository  -->
<g id="node8" class="node">
<title>UserRepository </title>
<polygon fill="#fb8072" stroke="black" points="586.86,-252 479.14,-252 479.14,-216 586.86,-216 586.86,-252"/>
<text text-anchor="middle" x="533" y="-229.8" font-family="Times,serif" font-size="14.00">UserRepository </text>
</g>
<!-- UserModule&#45;&gt;UserRepository  -->
<g id="edge9" class="edge">
<title>UserModule&#45;&gt;UserRepository </title>
<path fill="none" stroke="black" stroke-dasharray="5,2" d="M410.18,-175C459.37,-175 533,-175 533,-175 533,-175 533,-205.98 533,-205.98"/>
<polygon fill="black" stroke="black" points="529.5,-205.98 533,-215.98 536.5,-205.98 529.5,-205.98"/>
</g>
<!-- UserService  -->
<g id="node9" class="node">
<title>UserService </title>
<polygon fill="#fb8072" stroke="black" points="692.9,-252 605.1,-252 605.1,-216 692.9,-216 692.9,-252"/>
<text text-anchor="middle" x="649" y="-229.8" font-family="Times,serif" font-size="14.00">UserService </text>
</g>
<!-- UserModule&#45;&gt;UserService  -->
<g id="edge10" class="edge">
<title>UserModule&#45;&gt;UserService </title>
<path fill="none" stroke="black" stroke-dasharray="5,2" d="M410.14,-163C489.13,-163 649,-163 649,-163 649,-163 649,-205.72 649,-205.72"/>
<polygon fill="black" stroke="black" points="645.5,-205.72 649,-215.72 652.5,-205.72 645.5,-205.72"/>
</g>
<!-- AuthService -->
<g id="node4" class="node">
<title>AuthService</title>
<ellipse fill="#fdb462" stroke="black" cx="83" cy="-104" rx="59.11" ry="18"/>
<text text-anchor="middle" x="83" y="-99.8" font-family="Times,serif" font-size="14.00">AuthService</text>
</g>
<!-- AuthService&#45;&gt;AuthModule -->
<g id="edge8" class="edge">
<title>AuthService&#45;&gt;AuthModule</title>
<path fill="none" stroke="black" d="M102.77,-120.98C102.77,-154.94 102.77,-228 102.77,-228 102.77,-228 313.37,-228 313.37,-228"/>
<polygon fill="black" stroke="black" points="313.37,-231.5 323.37,-228 313.37,-224.5 313.37,-231.5"/>
</g>
<!-- AuthService&#45;&gt;AppModule -->
<g id="edge3" class="edge">
<title>AuthService&#45;&gt;AppModule</title>
<path fill="none" stroke="black" d="M63.23,-121.21C63.23,-170.72 63.23,-310 63.23,-310 63.23,-310 232.22,-310 232.22,-310"/>
<polygon fill="black" stroke="black" points="232.22,-313.5 242.22,-310 232.22,-306.5 232.22,-313.5"/>
</g>
<!-- UserRepository -->
<g id="node5" class="node">
<title>UserRepository</title>
<ellipse fill="#fdb462" stroke="black" cx="367" cy="-104" rx="71.79" ry="18"/>
<text text-anchor="middle" x="367" y="-99.8" font-family="Times,serif" font-size="14.00">UserRepository</text>
</g>
<!-- UserRepository&#45;&gt;UserModule -->
<g id="edge11" class="edge">
<title>UserRepository&#45;&gt;UserModule</title>
<path fill="none" stroke="black" d="M367,-122.11C367,-122.11 367,-140.99 367,-140.99"/>
<polygon fill="black" stroke="black" points="363.5,-140.99 367,-150.99 370.5,-140.99 363.5,-140.99"/>
</g>
<!-- UserRepository&#45;&gt;AppModule -->
<g id="edge4" class="edge">
<title>UserRepository&#45;&gt;AppModule</title>
<path fill="none" stroke="black" d="M302.32,-111.82C302.32,-111.82 302.32,-281.87 302.32,-281.87"/>
<polygon fill="black" stroke="black" points="298.82,-281.87 302.32,-291.87 305.82,-281.87 298.82,-281.87"/>
</g>
<!-- UserService -->
<g id="node6" class="node">
<title>UserService</title>
<ellipse fill="#fdb462" stroke="black" cx="219" cy="-104" rx="58.44" ry="18"/>
<text text-anchor="middle" x="219" y="-99.8" font-family="Times,serif" font-size="14.00">UserService</text>
</g>
<!-- UserService&#45;&gt;UserModule -->
<g id="edge12" class="edge">
<title>UserService&#45;&gt;UserModule</title>
<path fill="none" stroke="black" d="M265.54,-114.82C265.54,-131.85 265.54,-163 265.54,-163 265.54,-163 313.97,-163 313.97,-163"/>
<polygon fill="black" stroke="black" points="313.97,-166.5 323.97,-163 313.97,-159.5 313.97,-166.5"/>
</g>
<!-- UserService&#45;&gt;AppModule -->
<g id="edge5" class="edge">
<title>UserService&#45;&gt;AppModule</title>
<path fill="none" stroke="black" d="M253.85,-118.49C253.85,-118.49 253.85,-281.78 253.85,-281.78"/>
<polygon fill="black" stroke="black" points="250.35,-281.78 253.85,-291.78 257.35,-281.78 250.35,-281.78"/>
</g>
</g>
</svg>
